%TF.GenerationSoftware,KiCad,Pcbnew,(6.0.7-1)-1*%
%TF.CreationDate,2022-11-07T13:48:13-05:00*%
%TF.ProjectId,BasicPowerSupply,42617369-6350-46f7-9765-72537570706c,rev?*%
%TF.SameCoordinates,Original*%
%TF.FileFunction,Legend,Top*%
%TF.FilePolarity,Positive*%
%FSLAX46Y46*%
G04 Gerber Fmt 4.6, Leading zero omitted, Abs format (unit mm)*
G04 Created by KiCad (PCBNEW (6.0.7-1)-1) date 2022-11-07 13:48:13*
%MOMM*%
%LPD*%
G01*
G04 APERTURE LIST*
%ADD10C,0.150000*%
%ADD11C,0.300000*%
%ADD12C,0.120000*%
G04 APERTURE END LIST*
D10*
X100417380Y-96914642D02*
X101417380Y-96676547D01*
X100703095Y-96486071D01*
X101417380Y-96295595D01*
X100417380Y-96057500D01*
X101417380Y-95676547D02*
X100750714Y-95676547D01*
X100417380Y-95676547D02*
X100465000Y-95724166D01*
X100512619Y-95676547D01*
X100465000Y-95628928D01*
X100417380Y-95676547D01*
X100512619Y-95676547D01*
X101417380Y-95057500D02*
X101369761Y-95152738D01*
X101274523Y-95200357D01*
X100417380Y-95200357D01*
X101417380Y-94533690D02*
X101369761Y-94628928D01*
X101274523Y-94676547D01*
X100417380Y-94676547D01*
X101369761Y-93438452D02*
X101417380Y-93295595D01*
X101417380Y-93057500D01*
X101369761Y-92962261D01*
X101322142Y-92914642D01*
X101226904Y-92867023D01*
X101131666Y-92867023D01*
X101036428Y-92914642D01*
X100988809Y-92962261D01*
X100941190Y-93057500D01*
X100893571Y-93247976D01*
X100845952Y-93343214D01*
X100798333Y-93390833D01*
X100703095Y-93438452D01*
X100607857Y-93438452D01*
X100512619Y-93390833D01*
X100465000Y-93343214D01*
X100417380Y-93247976D01*
X100417380Y-93009880D01*
X100465000Y-92867023D01*
X101369761Y-92009880D02*
X101417380Y-92105119D01*
X101417380Y-92295595D01*
X101369761Y-92390833D01*
X101322142Y-92438452D01*
X101226904Y-92486071D01*
X100941190Y-92486071D01*
X100845952Y-92438452D01*
X100798333Y-92390833D01*
X100750714Y-92295595D01*
X100750714Y-92105119D01*
X100798333Y-92009880D01*
X101417380Y-91581309D02*
X100417380Y-91581309D01*
X101417380Y-91152738D02*
X100893571Y-91152738D01*
X100798333Y-91200357D01*
X100750714Y-91295595D01*
X100750714Y-91438452D01*
X100798333Y-91533690D01*
X100845952Y-91581309D01*
X101417380Y-90533690D02*
X101369761Y-90628928D01*
X101322142Y-90676547D01*
X101226904Y-90724166D01*
X100941190Y-90724166D01*
X100845952Y-90676547D01*
X100798333Y-90628928D01*
X100750714Y-90533690D01*
X100750714Y-90390833D01*
X100798333Y-90295595D01*
X100845952Y-90247976D01*
X100941190Y-90200357D01*
X101226904Y-90200357D01*
X101322142Y-90247976D01*
X101369761Y-90295595D01*
X101417380Y-90390833D01*
X101417380Y-90533690D01*
X101369761Y-89390833D02*
X101417380Y-89486071D01*
X101417380Y-89676547D01*
X101369761Y-89771785D01*
X101274523Y-89819404D01*
X100893571Y-89819404D01*
X100798333Y-89771785D01*
X100750714Y-89676547D01*
X100750714Y-89486071D01*
X100798333Y-89390833D01*
X100893571Y-89343214D01*
X100988809Y-89343214D01*
X101084047Y-89819404D01*
X100750714Y-88914642D02*
X101417380Y-88914642D01*
X100845952Y-88914642D02*
X100798333Y-88867023D01*
X100750714Y-88771785D01*
X100750714Y-88628928D01*
X100798333Y-88533690D01*
X100893571Y-88486071D01*
X101417380Y-88486071D01*
X100750714Y-88152738D02*
X100750714Y-87771785D01*
X101417380Y-88009880D02*
X100560238Y-88009880D01*
X100465000Y-87962261D01*
X100417380Y-87867023D01*
X100417380Y-87771785D01*
X101369761Y-87057500D02*
X101417380Y-87152738D01*
X101417380Y-87343214D01*
X101369761Y-87438452D01*
X101274523Y-87486071D01*
X100893571Y-87486071D01*
X100798333Y-87438452D01*
X100750714Y-87343214D01*
X100750714Y-87152738D01*
X100798333Y-87057500D01*
X100893571Y-87009880D01*
X100988809Y-87009880D01*
X101084047Y-87486071D01*
X101417380Y-86438452D02*
X101369761Y-86533690D01*
X101274523Y-86581309D01*
X100417380Y-86581309D01*
X101417380Y-85628928D02*
X100417380Y-85628928D01*
X101369761Y-85628928D02*
X101417380Y-85724166D01*
X101417380Y-85914642D01*
X101369761Y-86009880D01*
X101322142Y-86057500D01*
X101226904Y-86105119D01*
X100941190Y-86105119D01*
X100845952Y-86057500D01*
X100798333Y-86009880D01*
X100750714Y-85914642D01*
X100750714Y-85724166D01*
X100798333Y-85628928D01*
X99464761Y-96867023D02*
X99512380Y-96724166D01*
X99512380Y-96486071D01*
X99464761Y-96390833D01*
X99417142Y-96343214D01*
X99321904Y-96295595D01*
X99226666Y-96295595D01*
X99131428Y-96343214D01*
X99083809Y-96390833D01*
X99036190Y-96486071D01*
X98988571Y-96676547D01*
X98940952Y-96771785D01*
X98893333Y-96819404D01*
X98798095Y-96867023D01*
X98702857Y-96867023D01*
X98607619Y-96819404D01*
X98560000Y-96771785D01*
X98512380Y-96676547D01*
X98512380Y-96438452D01*
X98560000Y-96295595D01*
X99512380Y-95867023D02*
X98845714Y-95867023D01*
X98512380Y-95867023D02*
X98560000Y-95914642D01*
X98607619Y-95867023D01*
X98560000Y-95819404D01*
X98512380Y-95867023D01*
X98607619Y-95867023D01*
X99512380Y-95390833D02*
X98845714Y-95390833D01*
X98940952Y-95390833D02*
X98893333Y-95343214D01*
X98845714Y-95247976D01*
X98845714Y-95105119D01*
X98893333Y-95009880D01*
X98988571Y-94962261D01*
X99512380Y-94962261D01*
X98988571Y-94962261D02*
X98893333Y-94914642D01*
X98845714Y-94819404D01*
X98845714Y-94676547D01*
X98893333Y-94581309D01*
X98988571Y-94533690D01*
X99512380Y-94533690D01*
X98845714Y-94057500D02*
X99845714Y-94057500D01*
X98893333Y-94057500D02*
X98845714Y-93962261D01*
X98845714Y-93771785D01*
X98893333Y-93676547D01*
X98940952Y-93628928D01*
X99036190Y-93581309D01*
X99321904Y-93581309D01*
X99417142Y-93628928D01*
X99464761Y-93676547D01*
X99512380Y-93771785D01*
X99512380Y-93962261D01*
X99464761Y-94057500D01*
X99512380Y-93009880D02*
X99464761Y-93105119D01*
X99369523Y-93152738D01*
X98512380Y-93152738D01*
X99464761Y-92247976D02*
X99512380Y-92343214D01*
X99512380Y-92533690D01*
X99464761Y-92628928D01*
X99369523Y-92676547D01*
X98988571Y-92676547D01*
X98893333Y-92628928D01*
X98845714Y-92533690D01*
X98845714Y-92343214D01*
X98893333Y-92247976D01*
X98988571Y-92200357D01*
X99083809Y-92200357D01*
X99179047Y-92676547D01*
X98512380Y-90533690D02*
X98512380Y-91009880D01*
X98988571Y-91057500D01*
X98940952Y-91009880D01*
X98893333Y-90914642D01*
X98893333Y-90676547D01*
X98940952Y-90581309D01*
X98988571Y-90533690D01*
X99083809Y-90486071D01*
X99321904Y-90486071D01*
X99417142Y-90533690D01*
X99464761Y-90581309D01*
X99512380Y-90676547D01*
X99512380Y-90914642D01*
X99464761Y-91009880D01*
X99417142Y-91057500D01*
X98512380Y-90200357D02*
X99512380Y-89867023D01*
X98512380Y-89533690D01*
X99512380Y-87628928D02*
X99512380Y-87676547D01*
X99464761Y-87771785D01*
X99321904Y-87914642D01*
X99036190Y-88152738D01*
X98893333Y-88247976D01*
X98750476Y-88295595D01*
X98655238Y-88295595D01*
X98560000Y-88247976D01*
X98512380Y-88152738D01*
X98512380Y-88105119D01*
X98560000Y-88009880D01*
X98655238Y-87962261D01*
X98702857Y-87962261D01*
X98798095Y-88009880D01*
X98845714Y-88057500D01*
X99036190Y-88343214D01*
X99083809Y-88390833D01*
X99179047Y-88438452D01*
X99321904Y-88438452D01*
X99417142Y-88390833D01*
X99464761Y-88343214D01*
X99512380Y-88247976D01*
X99512380Y-88105119D01*
X99464761Y-88009880D01*
X99417142Y-87962261D01*
X99226666Y-87819404D01*
X99083809Y-87771785D01*
X98988571Y-87771785D01*
X98512380Y-86533690D02*
X98512380Y-85914642D01*
X98893333Y-86247976D01*
X98893333Y-86105119D01*
X98940952Y-86009880D01*
X98988571Y-85962261D01*
X99083809Y-85914642D01*
X99321904Y-85914642D01*
X99417142Y-85962261D01*
X99464761Y-86009880D01*
X99512380Y-86105119D01*
X99512380Y-86390833D01*
X99464761Y-86486071D01*
X99417142Y-86533690D01*
X99417142Y-85486071D02*
X99464761Y-85438452D01*
X99512380Y-85486071D01*
X99464761Y-85533690D01*
X99417142Y-85486071D01*
X99512380Y-85486071D01*
X98512380Y-85105119D02*
X98512380Y-84486071D01*
X98893333Y-84819404D01*
X98893333Y-84676547D01*
X98940952Y-84581309D01*
X98988571Y-84533690D01*
X99083809Y-84486071D01*
X99321904Y-84486071D01*
X99417142Y-84533690D01*
X99464761Y-84581309D01*
X99512380Y-84676547D01*
X99512380Y-84962261D01*
X99464761Y-85057500D01*
X99417142Y-85105119D01*
X98512380Y-84200357D02*
X99512380Y-83867023D01*
X98512380Y-83533690D01*
X99512380Y-82438452D02*
X98512380Y-82438452D01*
X98512380Y-82057500D01*
X98560000Y-81962261D01*
X98607619Y-81914642D01*
X98702857Y-81867023D01*
X98845714Y-81867023D01*
X98940952Y-81914642D01*
X98988571Y-81962261D01*
X99036190Y-82057500D01*
X99036190Y-82438452D01*
X99512380Y-81295595D02*
X99464761Y-81390833D01*
X99417142Y-81438452D01*
X99321904Y-81486071D01*
X99036190Y-81486071D01*
X98940952Y-81438452D01*
X98893333Y-81390833D01*
X98845714Y-81295595D01*
X98845714Y-81152738D01*
X98893333Y-81057500D01*
X98940952Y-81009880D01*
X99036190Y-80962261D01*
X99321904Y-80962261D01*
X99417142Y-81009880D01*
X99464761Y-81057500D01*
X99512380Y-81152738D01*
X99512380Y-81295595D01*
X98845714Y-80628928D02*
X99512380Y-80438452D01*
X99036190Y-80247976D01*
X99512380Y-80057500D01*
X98845714Y-79867023D01*
X99464761Y-79105119D02*
X99512380Y-79200357D01*
X99512380Y-79390833D01*
X99464761Y-79486071D01*
X99369523Y-79533690D01*
X98988571Y-79533690D01*
X98893333Y-79486071D01*
X98845714Y-79390833D01*
X98845714Y-79200357D01*
X98893333Y-79105119D01*
X98988571Y-79057500D01*
X99083809Y-79057500D01*
X99179047Y-79533690D01*
X99512380Y-78628928D02*
X98845714Y-78628928D01*
X99036190Y-78628928D02*
X98940952Y-78581309D01*
X98893333Y-78533690D01*
X98845714Y-78438452D01*
X98845714Y-78343214D01*
X99464761Y-77295595D02*
X99512380Y-77152738D01*
X99512380Y-76914642D01*
X99464761Y-76819404D01*
X99417142Y-76771785D01*
X99321904Y-76724166D01*
X99226666Y-76724166D01*
X99131428Y-76771785D01*
X99083809Y-76819404D01*
X99036190Y-76914642D01*
X98988571Y-77105119D01*
X98940952Y-77200357D01*
X98893333Y-77247976D01*
X98798095Y-77295595D01*
X98702857Y-77295595D01*
X98607619Y-77247976D01*
X98560000Y-77200357D01*
X98512380Y-77105119D01*
X98512380Y-76867023D01*
X98560000Y-76724166D01*
X98845714Y-75867023D02*
X99512380Y-75867023D01*
X98845714Y-76295595D02*
X99369523Y-76295595D01*
X99464761Y-76247976D01*
X99512380Y-76152738D01*
X99512380Y-76009880D01*
X99464761Y-75914642D01*
X99417142Y-75867023D01*
X98845714Y-75390833D02*
X99845714Y-75390833D01*
X98893333Y-75390833D02*
X98845714Y-75295595D01*
X98845714Y-75105119D01*
X98893333Y-75009880D01*
X98940952Y-74962261D01*
X99036190Y-74914642D01*
X99321904Y-74914642D01*
X99417142Y-74962261D01*
X99464761Y-75009880D01*
X99512380Y-75105119D01*
X99512380Y-75295595D01*
X99464761Y-75390833D01*
X98845714Y-74486071D02*
X99845714Y-74486071D01*
X98893333Y-74486071D02*
X98845714Y-74390833D01*
X98845714Y-74200357D01*
X98893333Y-74105119D01*
X98940952Y-74057500D01*
X99036190Y-74009880D01*
X99321904Y-74009880D01*
X99417142Y-74057500D01*
X99464761Y-74105119D01*
X99512380Y-74200357D01*
X99512380Y-74390833D01*
X99464761Y-74486071D01*
X99512380Y-73438452D02*
X99464761Y-73533690D01*
X99369523Y-73581309D01*
X98512380Y-73581309D01*
X98845714Y-73152738D02*
X99512380Y-72914642D01*
X98845714Y-72676547D02*
X99512380Y-72914642D01*
X99750476Y-73009880D01*
X99798095Y-73057500D01*
X99845714Y-73152738D01*
D11*
X192512142Y-88403571D02*
X192512142Y-87260714D01*
X193083571Y-87832142D02*
X191940714Y-87832142D01*
X191583571Y-85832142D02*
X191583571Y-86546428D01*
X192297857Y-86617857D01*
X192226428Y-86546428D01*
X192155000Y-86403571D01*
X192155000Y-86046428D01*
X192226428Y-85903571D01*
X192297857Y-85832142D01*
X192440714Y-85760714D01*
X192797857Y-85760714D01*
X192940714Y-85832142D01*
X193012142Y-85903571D01*
X193083571Y-86046428D01*
X193083571Y-86403571D01*
X193012142Y-86546428D01*
X192940714Y-86617857D01*
X191583571Y-85332142D02*
X193083571Y-84832142D01*
X191583571Y-84332142D01*
X192297857Y-83332142D02*
X192369285Y-83117857D01*
X192440714Y-83046428D01*
X192583571Y-82975000D01*
X192797857Y-82975000D01*
X192940714Y-83046428D01*
X193012142Y-83117857D01*
X193083571Y-83260714D01*
X193083571Y-83832142D01*
X191583571Y-83832142D01*
X191583571Y-83332142D01*
X191655000Y-83189285D01*
X191726428Y-83117857D01*
X191869285Y-83046428D01*
X192012142Y-83046428D01*
X192155000Y-83117857D01*
X192226428Y-83189285D01*
X192297857Y-83332142D01*
X192297857Y-83832142D01*
X191877142Y-101432857D02*
X191877142Y-100290000D01*
X192448571Y-100861428D02*
X191305714Y-100861428D01*
X190948571Y-99718571D02*
X190948571Y-98790000D01*
X191520000Y-99290000D01*
X191520000Y-99075714D01*
X191591428Y-98932857D01*
X191662857Y-98861428D01*
X191805714Y-98790000D01*
X192162857Y-98790000D01*
X192305714Y-98861428D01*
X192377142Y-98932857D01*
X192448571Y-99075714D01*
X192448571Y-99504285D01*
X192377142Y-99647142D01*
X192305714Y-99718571D01*
X192305714Y-98147142D02*
X192377142Y-98075714D01*
X192448571Y-98147142D01*
X192377142Y-98218571D01*
X192305714Y-98147142D01*
X192448571Y-98147142D01*
X190948571Y-97575714D02*
X190948571Y-96647142D01*
X191520000Y-97147142D01*
X191520000Y-96932857D01*
X191591428Y-96790000D01*
X191662857Y-96718571D01*
X191805714Y-96647142D01*
X192162857Y-96647142D01*
X192305714Y-96718571D01*
X192377142Y-96790000D01*
X192448571Y-96932857D01*
X192448571Y-97361428D01*
X192377142Y-97504285D01*
X192305714Y-97575714D01*
X190948571Y-96218571D02*
X192448571Y-95718571D01*
X190948571Y-95218571D01*
X192020000Y-94790000D02*
X192020000Y-94075714D01*
X192448571Y-94932857D02*
X190948571Y-94432857D01*
X192448571Y-93932857D01*
X192512142Y-76231428D02*
X192512142Y-75088571D01*
X193083571Y-75660000D02*
X191940714Y-75660000D01*
X191583571Y-73660000D02*
X191583571Y-74374285D01*
X192297857Y-74445714D01*
X192226428Y-74374285D01*
X192155000Y-74231428D01*
X192155000Y-73874285D01*
X192226428Y-73731428D01*
X192297857Y-73660000D01*
X192440714Y-73588571D01*
X192797857Y-73588571D01*
X192940714Y-73660000D01*
X193012142Y-73731428D01*
X193083571Y-73874285D01*
X193083571Y-74231428D01*
X193012142Y-74374285D01*
X192940714Y-74445714D01*
X191583571Y-73160000D02*
X193083571Y-72660000D01*
X191583571Y-72160000D01*
X192655000Y-71731428D02*
X192655000Y-71017142D01*
X193083571Y-71874285D02*
X191583571Y-71374285D01*
X193083571Y-70874285D01*
D10*
X131953095Y-113165000D02*
X131857857Y-113117380D01*
X131715000Y-113117380D01*
X131572142Y-113165000D01*
X131476904Y-113260238D01*
X131429285Y-113355476D01*
X131381666Y-113545952D01*
X131381666Y-113688809D01*
X131429285Y-113879285D01*
X131476904Y-113974523D01*
X131572142Y-114069761D01*
X131715000Y-114117380D01*
X131810238Y-114117380D01*
X131953095Y-114069761D01*
X132000714Y-114022142D01*
X132000714Y-113688809D01*
X131810238Y-113688809D01*
X132429285Y-114117380D02*
X132429285Y-113117380D01*
X133000714Y-114117380D01*
X133000714Y-113117380D01*
X133476904Y-114117380D02*
X133476904Y-113117380D01*
X133715000Y-113117380D01*
X133857857Y-113165000D01*
X133953095Y-113260238D01*
X134000714Y-113355476D01*
X134048333Y-113545952D01*
X134048333Y-113688809D01*
X134000714Y-113879285D01*
X133953095Y-113974523D01*
X133857857Y-114069761D01*
X133715000Y-114117380D01*
X133476904Y-114117380D01*
D11*
X191877142Y-113605000D02*
X191877142Y-112462142D01*
X192448571Y-113033571D02*
X191305714Y-113033571D01*
X190948571Y-111890714D02*
X190948571Y-110962142D01*
X191520000Y-111462142D01*
X191520000Y-111247857D01*
X191591428Y-111105000D01*
X191662857Y-111033571D01*
X191805714Y-110962142D01*
X192162857Y-110962142D01*
X192305714Y-111033571D01*
X192377142Y-111105000D01*
X192448571Y-111247857D01*
X192448571Y-111676428D01*
X192377142Y-111819285D01*
X192305714Y-111890714D01*
X192305714Y-110319285D02*
X192377142Y-110247857D01*
X192448571Y-110319285D01*
X192377142Y-110390714D01*
X192305714Y-110319285D01*
X192448571Y-110319285D01*
X190948571Y-109747857D02*
X190948571Y-108819285D01*
X191520000Y-109319285D01*
X191520000Y-109105000D01*
X191591428Y-108962142D01*
X191662857Y-108890714D01*
X191805714Y-108819285D01*
X192162857Y-108819285D01*
X192305714Y-108890714D01*
X192377142Y-108962142D01*
X192448571Y-109105000D01*
X192448571Y-109533571D01*
X192377142Y-109676428D01*
X192305714Y-109747857D01*
X190948571Y-108390714D02*
X192448571Y-107890714D01*
X190948571Y-107390714D01*
X191662857Y-106390714D02*
X191734285Y-106176428D01*
X191805714Y-106105000D01*
X191948571Y-106033571D01*
X192162857Y-106033571D01*
X192305714Y-106105000D01*
X192377142Y-106176428D01*
X192448571Y-106319285D01*
X192448571Y-106890714D01*
X190948571Y-106890714D01*
X190948571Y-106390714D01*
X191020000Y-106247857D01*
X191091428Y-106176428D01*
X191234285Y-106105000D01*
X191377142Y-106105000D01*
X191520000Y-106176428D01*
X191591428Y-106247857D01*
X191662857Y-106390714D01*
X191662857Y-106890714D01*
D10*
%TO.C,R7*%
X121753333Y-71107380D02*
X121420000Y-70631190D01*
X121181904Y-71107380D02*
X121181904Y-70107380D01*
X121562857Y-70107380D01*
X121658095Y-70155000D01*
X121705714Y-70202619D01*
X121753333Y-70297857D01*
X121753333Y-70440714D01*
X121705714Y-70535952D01*
X121658095Y-70583571D01*
X121562857Y-70631190D01*
X121181904Y-70631190D01*
X122086666Y-70107380D02*
X122753333Y-70107380D01*
X122324761Y-71107380D01*
%TO.C,C6*%
X171807142Y-81446666D02*
X171854761Y-81494285D01*
X171902380Y-81637142D01*
X171902380Y-81732380D01*
X171854761Y-81875238D01*
X171759523Y-81970476D01*
X171664285Y-82018095D01*
X171473809Y-82065714D01*
X171330952Y-82065714D01*
X171140476Y-82018095D01*
X171045238Y-81970476D01*
X170950000Y-81875238D01*
X170902380Y-81732380D01*
X170902380Y-81637142D01*
X170950000Y-81494285D01*
X170997619Y-81446666D01*
X170902380Y-80589523D02*
X170902380Y-80780000D01*
X170950000Y-80875238D01*
X170997619Y-80922857D01*
X171140476Y-81018095D01*
X171330952Y-81065714D01*
X171711904Y-81065714D01*
X171807142Y-81018095D01*
X171854761Y-80970476D01*
X171902380Y-80875238D01*
X171902380Y-80684761D01*
X171854761Y-80589523D01*
X171807142Y-80541904D01*
X171711904Y-80494285D01*
X171473809Y-80494285D01*
X171378571Y-80541904D01*
X171330952Y-80589523D01*
X171283333Y-80684761D01*
X171283333Y-80875238D01*
X171330952Y-80970476D01*
X171378571Y-81018095D01*
X171473809Y-81065714D01*
%TO.C,U2*%
X163022380Y-113156904D02*
X163831904Y-113156904D01*
X163927142Y-113109285D01*
X163974761Y-113061666D01*
X164022380Y-112966428D01*
X164022380Y-112775952D01*
X163974761Y-112680714D01*
X163927142Y-112633095D01*
X163831904Y-112585476D01*
X163022380Y-112585476D01*
X163117619Y-112156904D02*
X163070000Y-112109285D01*
X163022380Y-112014047D01*
X163022380Y-111775952D01*
X163070000Y-111680714D01*
X163117619Y-111633095D01*
X163212857Y-111585476D01*
X163308095Y-111585476D01*
X163450952Y-111633095D01*
X164022380Y-112204523D01*
X164022380Y-111585476D01*
%TO.C,SW4*%
X109499166Y-70814761D02*
X109642023Y-70862380D01*
X109880119Y-70862380D01*
X109975357Y-70814761D01*
X110022976Y-70767142D01*
X110070595Y-70671904D01*
X110070595Y-70576666D01*
X110022976Y-70481428D01*
X109975357Y-70433809D01*
X109880119Y-70386190D01*
X109689642Y-70338571D01*
X109594404Y-70290952D01*
X109546785Y-70243333D01*
X109499166Y-70148095D01*
X109499166Y-70052857D01*
X109546785Y-69957619D01*
X109594404Y-69910000D01*
X109689642Y-69862380D01*
X109927738Y-69862380D01*
X110070595Y-69910000D01*
X110403928Y-69862380D02*
X110642023Y-70862380D01*
X110832500Y-70148095D01*
X111022976Y-70862380D01*
X111261071Y-69862380D01*
X112070595Y-70195714D02*
X112070595Y-70862380D01*
X111832500Y-69814761D02*
X111594404Y-70529047D01*
X112213452Y-70529047D01*
%TO.C,C5*%
X171762142Y-108731666D02*
X171809761Y-108779285D01*
X171857380Y-108922142D01*
X171857380Y-109017380D01*
X171809761Y-109160238D01*
X171714523Y-109255476D01*
X171619285Y-109303095D01*
X171428809Y-109350714D01*
X171285952Y-109350714D01*
X171095476Y-109303095D01*
X171000238Y-109255476D01*
X170905000Y-109160238D01*
X170857380Y-109017380D01*
X170857380Y-108922142D01*
X170905000Y-108779285D01*
X170952619Y-108731666D01*
X170857380Y-107826904D02*
X170857380Y-108303095D01*
X171333571Y-108350714D01*
X171285952Y-108303095D01*
X171238333Y-108207857D01*
X171238333Y-107969761D01*
X171285952Y-107874523D01*
X171333571Y-107826904D01*
X171428809Y-107779285D01*
X171666904Y-107779285D01*
X171762142Y-107826904D01*
X171809761Y-107874523D01*
X171857380Y-107969761D01*
X171857380Y-108207857D01*
X171809761Y-108303095D01*
X171762142Y-108350714D01*
%TO.C,J3*%
X194611666Y-103167380D02*
X194611666Y-103881666D01*
X194564047Y-104024523D01*
X194468809Y-104119761D01*
X194325952Y-104167380D01*
X194230714Y-104167380D01*
X194992619Y-103167380D02*
X195611666Y-103167380D01*
X195278333Y-103548333D01*
X195421190Y-103548333D01*
X195516428Y-103595952D01*
X195564047Y-103643571D01*
X195611666Y-103738809D01*
X195611666Y-103976904D01*
X195564047Y-104072142D01*
X195516428Y-104119761D01*
X195421190Y-104167380D01*
X195135476Y-104167380D01*
X195040238Y-104119761D01*
X194992619Y-104072142D01*
%TO.C,LED1*%
X129842380Y-105899047D02*
X129842380Y-106375238D01*
X128842380Y-106375238D01*
X129318571Y-105565714D02*
X129318571Y-105232380D01*
X129842380Y-105089523D02*
X129842380Y-105565714D01*
X128842380Y-105565714D01*
X128842380Y-105089523D01*
X129842380Y-104660952D02*
X128842380Y-104660952D01*
X128842380Y-104422857D01*
X128890000Y-104280000D01*
X128985238Y-104184761D01*
X129080476Y-104137142D01*
X129270952Y-104089523D01*
X129413809Y-104089523D01*
X129604285Y-104137142D01*
X129699523Y-104184761D01*
X129794761Y-104280000D01*
X129842380Y-104422857D01*
X129842380Y-104660952D01*
X129842380Y-103137142D02*
X129842380Y-103708571D01*
X129842380Y-103422857D02*
X128842380Y-103422857D01*
X128985238Y-103518095D01*
X129080476Y-103613333D01*
X129128095Y-103708571D01*
%TO.C,U1*%
X163022380Y-100456904D02*
X163831904Y-100456904D01*
X163927142Y-100409285D01*
X163974761Y-100361666D01*
X164022380Y-100266428D01*
X164022380Y-100075952D01*
X163974761Y-99980714D01*
X163927142Y-99933095D01*
X163831904Y-99885476D01*
X163022380Y-99885476D01*
X164022380Y-98885476D02*
X164022380Y-99456904D01*
X164022380Y-99171190D02*
X163022380Y-99171190D01*
X163165238Y-99266428D01*
X163260476Y-99361666D01*
X163308095Y-99456904D01*
%TO.C,J2*%
X194611666Y-91102380D02*
X194611666Y-91816666D01*
X194564047Y-91959523D01*
X194468809Y-92054761D01*
X194325952Y-92102380D01*
X194230714Y-92102380D01*
X195040238Y-91197619D02*
X195087857Y-91150000D01*
X195183095Y-91102380D01*
X195421190Y-91102380D01*
X195516428Y-91150000D01*
X195564047Y-91197619D01*
X195611666Y-91292857D01*
X195611666Y-91388095D01*
X195564047Y-91530952D01*
X194992619Y-92102380D01*
X195611666Y-92102380D01*
%TO.C,J6*%
X126037380Y-116538333D02*
X126751666Y-116538333D01*
X126894523Y-116585952D01*
X126989761Y-116681190D01*
X127037380Y-116824047D01*
X127037380Y-116919285D01*
X126037380Y-115633571D02*
X126037380Y-115824047D01*
X126085000Y-115919285D01*
X126132619Y-115966904D01*
X126275476Y-116062142D01*
X126465952Y-116109761D01*
X126846904Y-116109761D01*
X126942142Y-116062142D01*
X126989761Y-116014523D01*
X127037380Y-115919285D01*
X127037380Y-115728809D01*
X126989761Y-115633571D01*
X126942142Y-115585952D01*
X126846904Y-115538333D01*
X126608809Y-115538333D01*
X126513571Y-115585952D01*
X126465952Y-115633571D01*
X126418333Y-115728809D01*
X126418333Y-115919285D01*
X126465952Y-116014523D01*
X126513571Y-116062142D01*
X126608809Y-116109761D01*
%TO.C,R8*%
X178268333Y-73307380D02*
X177935000Y-72831190D01*
X177696904Y-73307380D02*
X177696904Y-72307380D01*
X178077857Y-72307380D01*
X178173095Y-72355000D01*
X178220714Y-72402619D01*
X178268333Y-72497857D01*
X178268333Y-72640714D01*
X178220714Y-72735952D01*
X178173095Y-72783571D01*
X178077857Y-72831190D01*
X177696904Y-72831190D01*
X178839761Y-72735952D02*
X178744523Y-72688333D01*
X178696904Y-72640714D01*
X178649285Y-72545476D01*
X178649285Y-72497857D01*
X178696904Y-72402619D01*
X178744523Y-72355000D01*
X178839761Y-72307380D01*
X179030238Y-72307380D01*
X179125476Y-72355000D01*
X179173095Y-72402619D01*
X179220714Y-72497857D01*
X179220714Y-72545476D01*
X179173095Y-72640714D01*
X179125476Y-72688333D01*
X179030238Y-72735952D01*
X178839761Y-72735952D01*
X178744523Y-72783571D01*
X178696904Y-72831190D01*
X178649285Y-72926428D01*
X178649285Y-73116904D01*
X178696904Y-73212142D01*
X178744523Y-73259761D01*
X178839761Y-73307380D01*
X179030238Y-73307380D01*
X179125476Y-73259761D01*
X179173095Y-73212142D01*
X179220714Y-73116904D01*
X179220714Y-72926428D01*
X179173095Y-72831190D01*
X179125476Y-72783571D01*
X179030238Y-72735952D01*
%TO.C,R4*%
X176363333Y-97437380D02*
X176030000Y-96961190D01*
X175791904Y-97437380D02*
X175791904Y-96437380D01*
X176172857Y-96437380D01*
X176268095Y-96485000D01*
X176315714Y-96532619D01*
X176363333Y-96627857D01*
X176363333Y-96770714D01*
X176315714Y-96865952D01*
X176268095Y-96913571D01*
X176172857Y-96961190D01*
X175791904Y-96961190D01*
X177220476Y-96770714D02*
X177220476Y-97437380D01*
X176982380Y-96389761D02*
X176744285Y-97104047D01*
X177363333Y-97104047D01*
%TO.C,J1*%
X111757380Y-111458333D02*
X112471666Y-111458333D01*
X112614523Y-111505952D01*
X112709761Y-111601190D01*
X112757380Y-111744047D01*
X112757380Y-111839285D01*
X112757380Y-110458333D02*
X112757380Y-111029761D01*
X112757380Y-110744047D02*
X111757380Y-110744047D01*
X111900238Y-110839285D01*
X111995476Y-110934523D01*
X112043095Y-111029761D01*
%TO.C,SW3*%
X109366666Y-78814761D02*
X109509523Y-78862380D01*
X109747619Y-78862380D01*
X109842857Y-78814761D01*
X109890476Y-78767142D01*
X109938095Y-78671904D01*
X109938095Y-78576666D01*
X109890476Y-78481428D01*
X109842857Y-78433809D01*
X109747619Y-78386190D01*
X109557142Y-78338571D01*
X109461904Y-78290952D01*
X109414285Y-78243333D01*
X109366666Y-78148095D01*
X109366666Y-78052857D01*
X109414285Y-77957619D01*
X109461904Y-77910000D01*
X109557142Y-77862380D01*
X109795238Y-77862380D01*
X109938095Y-77910000D01*
X110271428Y-77862380D02*
X110509523Y-78862380D01*
X110700000Y-78148095D01*
X110890476Y-78862380D01*
X111128571Y-77862380D01*
X111414285Y-77862380D02*
X112033333Y-77862380D01*
X111700000Y-78243333D01*
X111842857Y-78243333D01*
X111938095Y-78290952D01*
X111985714Y-78338571D01*
X112033333Y-78433809D01*
X112033333Y-78671904D01*
X111985714Y-78767142D01*
X111938095Y-78814761D01*
X111842857Y-78862380D01*
X111557142Y-78862380D01*
X111461904Y-78814761D01*
X111414285Y-78767142D01*
%TO.C,C7*%
X180173333Y-84812142D02*
X180125714Y-84859761D01*
X179982857Y-84907380D01*
X179887619Y-84907380D01*
X179744761Y-84859761D01*
X179649523Y-84764523D01*
X179601904Y-84669285D01*
X179554285Y-84478809D01*
X179554285Y-84335952D01*
X179601904Y-84145476D01*
X179649523Y-84050238D01*
X179744761Y-83955000D01*
X179887619Y-83907380D01*
X179982857Y-83907380D01*
X180125714Y-83955000D01*
X180173333Y-84002619D01*
X180506666Y-83907380D02*
X181173333Y-83907380D01*
X180744761Y-84907380D01*
%TO.C,J5*%
X194611666Y-79047380D02*
X194611666Y-79761666D01*
X194564047Y-79904523D01*
X194468809Y-79999761D01*
X194325952Y-80047380D01*
X194230714Y-80047380D01*
X195564047Y-79047380D02*
X195087857Y-79047380D01*
X195040238Y-79523571D01*
X195087857Y-79475952D01*
X195183095Y-79428333D01*
X195421190Y-79428333D01*
X195516428Y-79475952D01*
X195564047Y-79523571D01*
X195611666Y-79618809D01*
X195611666Y-79856904D01*
X195564047Y-79952142D01*
X195516428Y-79999761D01*
X195421190Y-80047380D01*
X195183095Y-80047380D01*
X195087857Y-79999761D01*
X195040238Y-79952142D01*
%TO.C,OC1*%
X132263571Y-85397380D02*
X132454047Y-85397380D01*
X132549285Y-85445000D01*
X132644523Y-85540238D01*
X132692142Y-85730714D01*
X132692142Y-86064047D01*
X132644523Y-86254523D01*
X132549285Y-86349761D01*
X132454047Y-86397380D01*
X132263571Y-86397380D01*
X132168333Y-86349761D01*
X132073095Y-86254523D01*
X132025476Y-86064047D01*
X132025476Y-85730714D01*
X132073095Y-85540238D01*
X132168333Y-85445000D01*
X132263571Y-85397380D01*
X133692142Y-86302142D02*
X133644523Y-86349761D01*
X133501666Y-86397380D01*
X133406428Y-86397380D01*
X133263571Y-86349761D01*
X133168333Y-86254523D01*
X133120714Y-86159285D01*
X133073095Y-85968809D01*
X133073095Y-85825952D01*
X133120714Y-85635476D01*
X133168333Y-85540238D01*
X133263571Y-85445000D01*
X133406428Y-85397380D01*
X133501666Y-85397380D01*
X133644523Y-85445000D01*
X133692142Y-85492619D01*
X134644523Y-86397380D02*
X134073095Y-86397380D01*
X134358809Y-86397380D02*
X134358809Y-85397380D01*
X134263571Y-85540238D01*
X134168333Y-85635476D01*
X134073095Y-85683095D01*
%TO.C,U3*%
X163182380Y-75056904D02*
X163991904Y-75056904D01*
X164087142Y-75009285D01*
X164134761Y-74961666D01*
X164182380Y-74866428D01*
X164182380Y-74675952D01*
X164134761Y-74580714D01*
X164087142Y-74533095D01*
X163991904Y-74485476D01*
X163182380Y-74485476D01*
X163182380Y-74104523D02*
X163182380Y-73485476D01*
X163563333Y-73818809D01*
X163563333Y-73675952D01*
X163610952Y-73580714D01*
X163658571Y-73533095D01*
X163753809Y-73485476D01*
X163991904Y-73485476D01*
X164087142Y-73533095D01*
X164134761Y-73580714D01*
X164182380Y-73675952D01*
X164182380Y-73961666D01*
X164134761Y-74056904D01*
X164087142Y-74104523D01*
%TO.C,U4*%
X163182380Y-87756904D02*
X163991904Y-87756904D01*
X164087142Y-87709285D01*
X164134761Y-87661666D01*
X164182380Y-87566428D01*
X164182380Y-87375952D01*
X164134761Y-87280714D01*
X164087142Y-87233095D01*
X163991904Y-87185476D01*
X163182380Y-87185476D01*
X163515714Y-86280714D02*
X164182380Y-86280714D01*
X163134761Y-86518809D02*
X163849047Y-86756904D01*
X163849047Y-86137857D01*
%TO.C,C3*%
X171852142Y-114486666D02*
X171899761Y-114534285D01*
X171947380Y-114677142D01*
X171947380Y-114772380D01*
X171899761Y-114915238D01*
X171804523Y-115010476D01*
X171709285Y-115058095D01*
X171518809Y-115105714D01*
X171375952Y-115105714D01*
X171185476Y-115058095D01*
X171090238Y-115010476D01*
X170995000Y-114915238D01*
X170947380Y-114772380D01*
X170947380Y-114677142D01*
X170995000Y-114534285D01*
X171042619Y-114486666D01*
X170947380Y-114153333D02*
X170947380Y-113534285D01*
X171328333Y-113867619D01*
X171328333Y-113724761D01*
X171375952Y-113629523D01*
X171423571Y-113581904D01*
X171518809Y-113534285D01*
X171756904Y-113534285D01*
X171852142Y-113581904D01*
X171899761Y-113629523D01*
X171947380Y-113724761D01*
X171947380Y-114010476D01*
X171899761Y-114105714D01*
X171852142Y-114153333D01*
%TO.C,J4*%
X194611666Y-66982380D02*
X194611666Y-67696666D01*
X194564047Y-67839523D01*
X194468809Y-67934761D01*
X194325952Y-67982380D01*
X194230714Y-67982380D01*
X195516428Y-67315714D02*
X195516428Y-67982380D01*
X195278333Y-66934761D02*
X195040238Y-67649047D01*
X195659285Y-67649047D01*
%TO.C,LED4*%
X183665952Y-82517380D02*
X183189761Y-82517380D01*
X183189761Y-81517380D01*
X183999285Y-81993571D02*
X184332619Y-81993571D01*
X184475476Y-82517380D02*
X183999285Y-82517380D01*
X183999285Y-81517380D01*
X184475476Y-81517380D01*
X184904047Y-82517380D02*
X184904047Y-81517380D01*
X185142142Y-81517380D01*
X185285000Y-81565000D01*
X185380238Y-81660238D01*
X185427857Y-81755476D01*
X185475476Y-81945952D01*
X185475476Y-82088809D01*
X185427857Y-82279285D01*
X185380238Y-82374523D01*
X185285000Y-82469761D01*
X185142142Y-82517380D01*
X184904047Y-82517380D01*
X186332619Y-81850714D02*
X186332619Y-82517380D01*
X186094523Y-81469761D02*
X185856428Y-82184047D01*
X186475476Y-82184047D01*
%TO.C,R5*%
X175728333Y-110137380D02*
X175395000Y-109661190D01*
X175156904Y-110137380D02*
X175156904Y-109137380D01*
X175537857Y-109137380D01*
X175633095Y-109185000D01*
X175680714Y-109232619D01*
X175728333Y-109327857D01*
X175728333Y-109470714D01*
X175680714Y-109565952D01*
X175633095Y-109613571D01*
X175537857Y-109661190D01*
X175156904Y-109661190D01*
X176633095Y-109137380D02*
X176156904Y-109137380D01*
X176109285Y-109613571D01*
X176156904Y-109565952D01*
X176252142Y-109518333D01*
X176490238Y-109518333D01*
X176585476Y-109565952D01*
X176633095Y-109613571D01*
X176680714Y-109708809D01*
X176680714Y-109946904D01*
X176633095Y-110042142D01*
X176585476Y-110089761D01*
X176490238Y-110137380D01*
X176252142Y-110137380D01*
X176156904Y-110089761D01*
X176109285Y-110042142D01*
%TO.C,R6*%
X121753333Y-78727380D02*
X121420000Y-78251190D01*
X121181904Y-78727380D02*
X121181904Y-77727380D01*
X121562857Y-77727380D01*
X121658095Y-77775000D01*
X121705714Y-77822619D01*
X121753333Y-77917857D01*
X121753333Y-78060714D01*
X121705714Y-78155952D01*
X121658095Y-78203571D01*
X121562857Y-78251190D01*
X121181904Y-78251190D01*
X122610476Y-77727380D02*
X122420000Y-77727380D01*
X122324761Y-77775000D01*
X122277142Y-77822619D01*
X122181904Y-77965476D01*
X122134285Y-78155952D01*
X122134285Y-78536904D01*
X122181904Y-78632142D01*
X122229523Y-78679761D01*
X122324761Y-78727380D01*
X122515238Y-78727380D01*
X122610476Y-78679761D01*
X122658095Y-78632142D01*
X122705714Y-78536904D01*
X122705714Y-78298809D01*
X122658095Y-78203571D01*
X122610476Y-78155952D01*
X122515238Y-78108333D01*
X122324761Y-78108333D01*
X122229523Y-78155952D01*
X122181904Y-78203571D01*
X122134285Y-78298809D01*
%TO.C,C2*%
X178268333Y-98147142D02*
X178220714Y-98194761D01*
X178077857Y-98242380D01*
X177982619Y-98242380D01*
X177839761Y-98194761D01*
X177744523Y-98099523D01*
X177696904Y-98004285D01*
X177649285Y-97813809D01*
X177649285Y-97670952D01*
X177696904Y-97480476D01*
X177744523Y-97385238D01*
X177839761Y-97290000D01*
X177982619Y-97242380D01*
X178077857Y-97242380D01*
X178220714Y-97290000D01*
X178268333Y-97337619D01*
X178649285Y-97337619D02*
X178696904Y-97290000D01*
X178792142Y-97242380D01*
X179030238Y-97242380D01*
X179125476Y-97290000D01*
X179173095Y-97337619D01*
X179220714Y-97432857D01*
X179220714Y-97528095D01*
X179173095Y-97670952D01*
X178601666Y-98242380D01*
X179220714Y-98242380D01*
%TO.C,SW2*%
X109366666Y-86689761D02*
X109509523Y-86737380D01*
X109747619Y-86737380D01*
X109842857Y-86689761D01*
X109890476Y-86642142D01*
X109938095Y-86546904D01*
X109938095Y-86451666D01*
X109890476Y-86356428D01*
X109842857Y-86308809D01*
X109747619Y-86261190D01*
X109557142Y-86213571D01*
X109461904Y-86165952D01*
X109414285Y-86118333D01*
X109366666Y-86023095D01*
X109366666Y-85927857D01*
X109414285Y-85832619D01*
X109461904Y-85785000D01*
X109557142Y-85737380D01*
X109795238Y-85737380D01*
X109938095Y-85785000D01*
X110271428Y-85737380D02*
X110509523Y-86737380D01*
X110700000Y-86023095D01*
X110890476Y-86737380D01*
X111128571Y-85737380D01*
X111461904Y-85832619D02*
X111509523Y-85785000D01*
X111604761Y-85737380D01*
X111842857Y-85737380D01*
X111938095Y-85785000D01*
X111985714Y-85832619D01*
X112033333Y-85927857D01*
X112033333Y-86023095D01*
X111985714Y-86165952D01*
X111414285Y-86737380D01*
X112033333Y-86737380D01*
%TO.C,C1*%
X117288333Y-107102142D02*
X117240714Y-107149761D01*
X117097857Y-107197380D01*
X117002619Y-107197380D01*
X116859761Y-107149761D01*
X116764523Y-107054523D01*
X116716904Y-106959285D01*
X116669285Y-106768809D01*
X116669285Y-106625952D01*
X116716904Y-106435476D01*
X116764523Y-106340238D01*
X116859761Y-106245000D01*
X117002619Y-106197380D01*
X117097857Y-106197380D01*
X117240714Y-106245000D01*
X117288333Y-106292619D01*
X118240714Y-107197380D02*
X117669285Y-107197380D01*
X117955000Y-107197380D02*
X117955000Y-106197380D01*
X117859761Y-106340238D01*
X117764523Y-106435476D01*
X117669285Y-106483095D01*
%TO.C,C8*%
X164822142Y-67496666D02*
X164869761Y-67544285D01*
X164917380Y-67687142D01*
X164917380Y-67782380D01*
X164869761Y-67925238D01*
X164774523Y-68020476D01*
X164679285Y-68068095D01*
X164488809Y-68115714D01*
X164345952Y-68115714D01*
X164155476Y-68068095D01*
X164060238Y-68020476D01*
X163965000Y-67925238D01*
X163917380Y-67782380D01*
X163917380Y-67687142D01*
X163965000Y-67544285D01*
X164012619Y-67496666D01*
X164345952Y-66925238D02*
X164298333Y-67020476D01*
X164250714Y-67068095D01*
X164155476Y-67115714D01*
X164107857Y-67115714D01*
X164012619Y-67068095D01*
X163965000Y-67020476D01*
X163917380Y-66925238D01*
X163917380Y-66734761D01*
X163965000Y-66639523D01*
X164012619Y-66591904D01*
X164107857Y-66544285D01*
X164155476Y-66544285D01*
X164250714Y-66591904D01*
X164298333Y-66639523D01*
X164345952Y-66734761D01*
X164345952Y-66925238D01*
X164393571Y-67020476D01*
X164441190Y-67068095D01*
X164536428Y-67115714D01*
X164726904Y-67115714D01*
X164822142Y-67068095D01*
X164869761Y-67020476D01*
X164917380Y-66925238D01*
X164917380Y-66734761D01*
X164869761Y-66639523D01*
X164822142Y-66591904D01*
X164726904Y-66544285D01*
X164536428Y-66544285D01*
X164441190Y-66591904D01*
X164393571Y-66639523D01*
X164345952Y-66734761D01*
%TO.C,LED2*%
X183665952Y-103472380D02*
X183189761Y-103472380D01*
X183189761Y-102472380D01*
X183999285Y-102948571D02*
X184332619Y-102948571D01*
X184475476Y-103472380D02*
X183999285Y-103472380D01*
X183999285Y-102472380D01*
X184475476Y-102472380D01*
X184904047Y-103472380D02*
X184904047Y-102472380D01*
X185142142Y-102472380D01*
X185285000Y-102520000D01*
X185380238Y-102615238D01*
X185427857Y-102710476D01*
X185475476Y-102900952D01*
X185475476Y-103043809D01*
X185427857Y-103234285D01*
X185380238Y-103329523D01*
X185285000Y-103424761D01*
X185142142Y-103472380D01*
X184904047Y-103472380D01*
X185856428Y-102567619D02*
X185904047Y-102520000D01*
X185999285Y-102472380D01*
X186237380Y-102472380D01*
X186332619Y-102520000D01*
X186380238Y-102567619D01*
X186427857Y-102662857D01*
X186427857Y-102758095D01*
X186380238Y-102900952D01*
X185808809Y-103472380D01*
X186427857Y-103472380D01*
%TO.C,R3*%
X121753333Y-84442380D02*
X121420000Y-83966190D01*
X121181904Y-84442380D02*
X121181904Y-83442380D01*
X121562857Y-83442380D01*
X121658095Y-83490000D01*
X121705714Y-83537619D01*
X121753333Y-83632857D01*
X121753333Y-83775714D01*
X121705714Y-83870952D01*
X121658095Y-83918571D01*
X121562857Y-83966190D01*
X121181904Y-83966190D01*
X122086666Y-83442380D02*
X122705714Y-83442380D01*
X122372380Y-83823333D01*
X122515238Y-83823333D01*
X122610476Y-83870952D01*
X122658095Y-83918571D01*
X122705714Y-84013809D01*
X122705714Y-84251904D01*
X122658095Y-84347142D01*
X122610476Y-84394761D01*
X122515238Y-84442380D01*
X122229523Y-84442380D01*
X122134285Y-84394761D01*
X122086666Y-84347142D01*
%TO.C,LED5*%
X183670952Y-92042380D02*
X183194761Y-92042380D01*
X183194761Y-91042380D01*
X184004285Y-91518571D02*
X184337619Y-91518571D01*
X184480476Y-92042380D02*
X184004285Y-92042380D01*
X184004285Y-91042380D01*
X184480476Y-91042380D01*
X184909047Y-92042380D02*
X184909047Y-91042380D01*
X185147142Y-91042380D01*
X185290000Y-91090000D01*
X185385238Y-91185238D01*
X185432857Y-91280476D01*
X185480476Y-91470952D01*
X185480476Y-91613809D01*
X185432857Y-91804285D01*
X185385238Y-91899523D01*
X185290000Y-91994761D01*
X185147142Y-92042380D01*
X184909047Y-92042380D01*
X186385238Y-91042380D02*
X185909047Y-91042380D01*
X185861428Y-91518571D01*
X185909047Y-91470952D01*
X186004285Y-91423333D01*
X186242380Y-91423333D01*
X186337619Y-91470952D01*
X186385238Y-91518571D01*
X186432857Y-91613809D01*
X186432857Y-91851904D01*
X186385238Y-91947142D01*
X186337619Y-91994761D01*
X186242380Y-92042380D01*
X186004285Y-92042380D01*
X185909047Y-91994761D01*
X185861428Y-91947142D01*
%TO.C,C4*%
X163597142Y-96071666D02*
X163644761Y-96119285D01*
X163692380Y-96262142D01*
X163692380Y-96357380D01*
X163644761Y-96500238D01*
X163549523Y-96595476D01*
X163454285Y-96643095D01*
X163263809Y-96690714D01*
X163120952Y-96690714D01*
X162930476Y-96643095D01*
X162835238Y-96595476D01*
X162740000Y-96500238D01*
X162692380Y-96357380D01*
X162692380Y-96262142D01*
X162740000Y-96119285D01*
X162787619Y-96071666D01*
X163025714Y-95214523D02*
X163692380Y-95214523D01*
X162644761Y-95452619D02*
X163359047Y-95690714D01*
X163359047Y-95071666D01*
%TO.C,LED3*%
X183665952Y-114267380D02*
X183189761Y-114267380D01*
X183189761Y-113267380D01*
X183999285Y-113743571D02*
X184332619Y-113743571D01*
X184475476Y-114267380D02*
X183999285Y-114267380D01*
X183999285Y-113267380D01*
X184475476Y-113267380D01*
X184904047Y-114267380D02*
X184904047Y-113267380D01*
X185142142Y-113267380D01*
X185285000Y-113315000D01*
X185380238Y-113410238D01*
X185427857Y-113505476D01*
X185475476Y-113695952D01*
X185475476Y-113838809D01*
X185427857Y-114029285D01*
X185380238Y-114124523D01*
X185285000Y-114219761D01*
X185142142Y-114267380D01*
X184904047Y-114267380D01*
X185808809Y-113267380D02*
X186427857Y-113267380D01*
X186094523Y-113648333D01*
X186237380Y-113648333D01*
X186332619Y-113695952D01*
X186380238Y-113743571D01*
X186427857Y-113838809D01*
X186427857Y-114076904D01*
X186380238Y-114172142D01*
X186332619Y-114219761D01*
X186237380Y-114267380D01*
X185951666Y-114267380D01*
X185856428Y-114219761D01*
X185808809Y-114172142D01*
%TO.C,SW1*%
X109499166Y-94309761D02*
X109642023Y-94357380D01*
X109880119Y-94357380D01*
X109975357Y-94309761D01*
X110022976Y-94262142D01*
X110070595Y-94166904D01*
X110070595Y-94071666D01*
X110022976Y-93976428D01*
X109975357Y-93928809D01*
X109880119Y-93881190D01*
X109689642Y-93833571D01*
X109594404Y-93785952D01*
X109546785Y-93738333D01*
X109499166Y-93643095D01*
X109499166Y-93547857D01*
X109546785Y-93452619D01*
X109594404Y-93405000D01*
X109689642Y-93357380D01*
X109927738Y-93357380D01*
X110070595Y-93405000D01*
X110403928Y-93357380D02*
X110642023Y-94357380D01*
X110832500Y-93643095D01*
X111022976Y-94357380D01*
X111261071Y-93357380D01*
X112165833Y-94357380D02*
X111594404Y-94357380D01*
X111880119Y-94357380D02*
X111880119Y-93357380D01*
X111784880Y-93500238D01*
X111689642Y-93595476D01*
X111594404Y-93643095D01*
%TO.C,C9*%
X173032142Y-86526666D02*
X173079761Y-86574285D01*
X173127380Y-86717142D01*
X173127380Y-86812380D01*
X173079761Y-86955238D01*
X172984523Y-87050476D01*
X172889285Y-87098095D01*
X172698809Y-87145714D01*
X172555952Y-87145714D01*
X172365476Y-87098095D01*
X172270238Y-87050476D01*
X172175000Y-86955238D01*
X172127380Y-86812380D01*
X172127380Y-86717142D01*
X172175000Y-86574285D01*
X172222619Y-86526666D01*
X173127380Y-86050476D02*
X173127380Y-85860000D01*
X173079761Y-85764761D01*
X173032142Y-85717142D01*
X172889285Y-85621904D01*
X172698809Y-85574285D01*
X172317857Y-85574285D01*
X172222619Y-85621904D01*
X172175000Y-85669523D01*
X172127380Y-85764761D01*
X172127380Y-85955238D01*
X172175000Y-86050476D01*
X172222619Y-86098095D01*
X172317857Y-86145714D01*
X172555952Y-86145714D01*
X172651190Y-86098095D01*
X172698809Y-86050476D01*
X172746428Y-85955238D01*
X172746428Y-85764761D01*
X172698809Y-85669523D01*
X172651190Y-85621904D01*
X172555952Y-85574285D01*
%TO.C,R9*%
X179987380Y-78906666D02*
X179511190Y-79240000D01*
X179987380Y-79478095D02*
X178987380Y-79478095D01*
X178987380Y-79097142D01*
X179035000Y-79001904D01*
X179082619Y-78954285D01*
X179177857Y-78906666D01*
X179320714Y-78906666D01*
X179415952Y-78954285D01*
X179463571Y-79001904D01*
X179511190Y-79097142D01*
X179511190Y-79478095D01*
X179987380Y-78430476D02*
X179987380Y-78240000D01*
X179939761Y-78144761D01*
X179892142Y-78097142D01*
X179749285Y-78001904D01*
X179558809Y-77954285D01*
X179177857Y-77954285D01*
X179082619Y-78001904D01*
X179035000Y-78049523D01*
X178987380Y-78144761D01*
X178987380Y-78335238D01*
X179035000Y-78430476D01*
X179082619Y-78478095D01*
X179177857Y-78525714D01*
X179415952Y-78525714D01*
X179511190Y-78478095D01*
X179558809Y-78430476D01*
X179606428Y-78335238D01*
X179606428Y-78144761D01*
X179558809Y-78049523D01*
X179511190Y-78001904D01*
X179415952Y-77954285D01*
%TO.C,R2*%
X121753333Y-93967380D02*
X121420000Y-93491190D01*
X121181904Y-93967380D02*
X121181904Y-92967380D01*
X121562857Y-92967380D01*
X121658095Y-93015000D01*
X121705714Y-93062619D01*
X121753333Y-93157857D01*
X121753333Y-93300714D01*
X121705714Y-93395952D01*
X121658095Y-93443571D01*
X121562857Y-93491190D01*
X121181904Y-93491190D01*
X122134285Y-93062619D02*
X122181904Y-93015000D01*
X122277142Y-92967380D01*
X122515238Y-92967380D01*
X122610476Y-93015000D01*
X122658095Y-93062619D01*
X122705714Y-93157857D01*
X122705714Y-93253095D01*
X122658095Y-93395952D01*
X122086666Y-93967380D01*
X122705714Y-93967380D01*
%TO.C,R1*%
X121753333Y-104422380D02*
X121420000Y-103946190D01*
X121181904Y-104422380D02*
X121181904Y-103422380D01*
X121562857Y-103422380D01*
X121658095Y-103470000D01*
X121705714Y-103517619D01*
X121753333Y-103612857D01*
X121753333Y-103755714D01*
X121705714Y-103850952D01*
X121658095Y-103898571D01*
X121562857Y-103946190D01*
X121181904Y-103946190D01*
X122705714Y-104422380D02*
X122134285Y-104422380D01*
X122420000Y-104422380D02*
X122420000Y-103422380D01*
X122324761Y-103565238D01*
X122229523Y-103660476D01*
X122134285Y-103708095D01*
%TO.C,OC2*%
X132898571Y-70157380D02*
X133089047Y-70157380D01*
X133184285Y-70205000D01*
X133279523Y-70300238D01*
X133327142Y-70490714D01*
X133327142Y-70824047D01*
X133279523Y-71014523D01*
X133184285Y-71109761D01*
X133089047Y-71157380D01*
X132898571Y-71157380D01*
X132803333Y-71109761D01*
X132708095Y-71014523D01*
X132660476Y-70824047D01*
X132660476Y-70490714D01*
X132708095Y-70300238D01*
X132803333Y-70205000D01*
X132898571Y-70157380D01*
X134327142Y-71062142D02*
X134279523Y-71109761D01*
X134136666Y-71157380D01*
X134041428Y-71157380D01*
X133898571Y-71109761D01*
X133803333Y-71014523D01*
X133755714Y-70919285D01*
X133708095Y-70728809D01*
X133708095Y-70585952D01*
X133755714Y-70395476D01*
X133803333Y-70300238D01*
X133898571Y-70205000D01*
X134041428Y-70157380D01*
X134136666Y-70157380D01*
X134279523Y-70205000D01*
X134327142Y-70252619D01*
X134708095Y-70252619D02*
X134755714Y-70205000D01*
X134850952Y-70157380D01*
X135089047Y-70157380D01*
X135184285Y-70205000D01*
X135231904Y-70252619D01*
X135279523Y-70347857D01*
X135279523Y-70443095D01*
X135231904Y-70585952D01*
X134660476Y-71157380D01*
X135279523Y-71157380D01*
D12*
%TO.C,R7*%
X118650000Y-74395000D02*
X125190000Y-74395000D01*
X118650000Y-71655000D02*
X125190000Y-71655000D01*
X118650000Y-74065000D02*
X118650000Y-74395000D01*
X125190000Y-74395000D02*
X125190000Y-74065000D01*
X118650000Y-71985000D02*
X118650000Y-71655000D01*
X125190000Y-71655000D02*
X125190000Y-71985000D01*
%TO.C,C6*%
X171545000Y-78105000D02*
G75*
G03*
X171545000Y-78105000I-3270000J0D01*
G01*
%TO.C,U2*%
X146460000Y-109855000D02*
X144500000Y-109855000D01*
X162570000Y-117645000D02*
X146460000Y-117645000D01*
X162570000Y-107145000D02*
X162570000Y-117645000D01*
X146460000Y-112395000D02*
X144500000Y-112395000D01*
X162570000Y-107145000D02*
X146460000Y-107145000D01*
X146460000Y-107145000D02*
X146460000Y-117645000D01*
X146460000Y-114935000D02*
X144500000Y-114935000D01*
%TO.C,SW4*%
X105682500Y-71260000D02*
X105682500Y-72460000D01*
X106882500Y-71260000D02*
X105682500Y-71260000D01*
X107182500Y-71560000D02*
X105982500Y-71560000D01*
X115182500Y-71560000D02*
X115182500Y-75760000D01*
X113982500Y-71560000D02*
X115182500Y-71560000D01*
X105982500Y-71560000D02*
X105982500Y-75760000D01*
X105982500Y-75760000D02*
X107182500Y-75760000D01*
X115182500Y-75760000D02*
X113982500Y-75760000D01*
%TO.C,C5*%
X170275000Y-108565000D02*
G75*
G03*
X170275000Y-108565000I-3270000J0D01*
G01*
%TO.C,J3*%
X193615000Y-114995000D02*
X196275000Y-114995000D01*
X193615000Y-106045000D02*
X193615000Y-104715000D01*
X193615000Y-104715000D02*
X194945000Y-104715000D01*
X196275000Y-107315000D02*
X196275000Y-114995000D01*
X193615000Y-107315000D02*
X196275000Y-107315000D01*
X193615000Y-107315000D02*
X193615000Y-114995000D01*
%TO.C,LED1*%
X131805000Y-107340000D02*
X134895000Y-107340000D01*
X134894830Y-107340000D02*
G75*
G03*
X133349538Y-101790000I-1544830J2560000D01*
G01*
X133350462Y-101790000D02*
G75*
G03*
X131805170Y-107340000I-462J-2990000D01*
G01*
X135850000Y-104780000D02*
G75*
G03*
X135850000Y-104780000I-2500000J0D01*
G01*
%TO.C,U1*%
X162570000Y-94445000D02*
X146460000Y-94445000D01*
X162570000Y-94445000D02*
X162570000Y-104945000D01*
X146460000Y-102235000D02*
X144500000Y-102235000D01*
X146460000Y-99695000D02*
X144500000Y-99695000D01*
X162570000Y-104945000D02*
X146460000Y-104945000D01*
X146460000Y-97155000D02*
X144500000Y-97155000D01*
X146460000Y-94445000D02*
X146460000Y-104945000D01*
%TO.C,J2*%
X193615000Y-95250000D02*
X196275000Y-95250000D01*
X193615000Y-93980000D02*
X193615000Y-92650000D01*
X193615000Y-92650000D02*
X194945000Y-92650000D01*
X193615000Y-95250000D02*
X193615000Y-102930000D01*
X196275000Y-95250000D02*
X196275000Y-102930000D01*
X193615000Y-102930000D02*
X196275000Y-102930000D01*
%TO.C,J6*%
X130185000Y-117535000D02*
X137865000Y-117535000D01*
X127585000Y-117535000D02*
X127585000Y-116205000D01*
X130185000Y-114875000D02*
X137865000Y-114875000D01*
X137865000Y-117535000D02*
X137865000Y-114875000D01*
X128915000Y-117535000D02*
X127585000Y-117535000D01*
X130185000Y-117535000D02*
X130185000Y-114875000D01*
%TO.C,R8*%
X181705000Y-71855000D02*
X175165000Y-71855000D01*
X175165000Y-69115000D02*
X175165000Y-69445000D01*
X181705000Y-69115000D02*
X175165000Y-69115000D01*
X181705000Y-71525000D02*
X181705000Y-71855000D01*
X181705000Y-69445000D02*
X181705000Y-69115000D01*
X175165000Y-71855000D02*
X175165000Y-71525000D01*
%TO.C,R4*%
X173260000Y-95985000D02*
X173260000Y-95655000D01*
X179800000Y-95985000D02*
X173260000Y-95985000D01*
X179800000Y-95655000D02*
X179800000Y-95985000D01*
X173260000Y-93245000D02*
X173260000Y-93575000D01*
X179800000Y-93575000D02*
X179800000Y-93245000D01*
X179800000Y-93245000D02*
X173260000Y-93245000D01*
%TO.C,J1*%
X104605000Y-115725000D02*
X96005000Y-115725000D01*
X110505000Y-113725000D02*
X110505000Y-115725000D01*
X110505000Y-115725000D02*
X109205000Y-115725000D01*
X96005000Y-106525000D02*
X110505000Y-106525000D01*
X110805000Y-106225000D02*
X109505000Y-106225000D01*
X110805000Y-107925000D02*
X110805000Y-106225000D01*
X110505000Y-106525000D02*
X110505000Y-108525000D01*
X96005000Y-115725000D02*
X96005000Y-106525000D01*
%TO.C,SW3*%
X115050000Y-79560000D02*
X115050000Y-83760000D01*
X106750000Y-79260000D02*
X105550000Y-79260000D01*
X113850000Y-79560000D02*
X115050000Y-79560000D01*
X107050000Y-79560000D02*
X105850000Y-79560000D01*
X105550000Y-79260000D02*
X105550000Y-80460000D01*
X105850000Y-79560000D02*
X105850000Y-83760000D01*
X105850000Y-83760000D02*
X107050000Y-83760000D01*
X115050000Y-83760000D02*
X113850000Y-83760000D01*
%TO.C,C7*%
X181070000Y-88265000D02*
G75*
G03*
X181070000Y-88265000I-3270000J0D01*
G01*
%TO.C,J5*%
X193615000Y-80595000D02*
X194945000Y-80595000D01*
X193615000Y-83195000D02*
X196275000Y-83195000D01*
X193615000Y-81925000D02*
X193615000Y-80595000D01*
X193615000Y-83195000D02*
X193615000Y-90875000D01*
X193615000Y-90875000D02*
X196275000Y-90875000D01*
X196275000Y-83195000D02*
X196275000Y-90875000D01*
%TO.C,OC1*%
X135585000Y-86945000D02*
X134335000Y-86945000D01*
X131085000Y-97225000D02*
X135585000Y-97225000D01*
X131085000Y-86945000D02*
X131085000Y-97225000D01*
X132335000Y-86945000D02*
X131085000Y-86945000D01*
X135585000Y-97225000D02*
X135585000Y-86945000D01*
X132335000Y-86945000D02*
G75*
G03*
X134335000Y-86945000I1000000J0D01*
G01*
%TO.C,U3*%
X146620000Y-76835000D02*
X144660000Y-76835000D01*
X162730000Y-69045000D02*
X162730000Y-79545000D01*
X162730000Y-69045000D02*
X146620000Y-69045000D01*
X146620000Y-74295000D02*
X144660000Y-74295000D01*
X162730000Y-79545000D02*
X146620000Y-79545000D01*
X146620000Y-71755000D02*
X144660000Y-71755000D01*
X146620000Y-69045000D02*
X146620000Y-79545000D01*
%TO.C,U4*%
X146620000Y-84455000D02*
X144660000Y-84455000D01*
X146620000Y-86995000D02*
X144660000Y-86995000D01*
X146620000Y-89535000D02*
X144660000Y-89535000D01*
X162730000Y-92245000D02*
X146620000Y-92245000D01*
X162730000Y-81745000D02*
X162730000Y-92245000D01*
X146620000Y-81745000D02*
X146620000Y-92245000D01*
X162730000Y-81745000D02*
X146620000Y-81745000D01*
%TO.C,C3*%
X179165000Y-114320000D02*
G75*
G03*
X179165000Y-114320000I-3270000J0D01*
G01*
%TO.C,J4*%
X193615000Y-71130000D02*
X196275000Y-71130000D01*
X193615000Y-68530000D02*
X194945000Y-68530000D01*
X193615000Y-78810000D02*
X196275000Y-78810000D01*
X193615000Y-71130000D02*
X193615000Y-78810000D01*
X196275000Y-71130000D02*
X196275000Y-78810000D01*
X193615000Y-69860000D02*
X193615000Y-68530000D01*
%TO.C,LED4*%
X187345000Y-79650000D02*
X187345000Y-76560000D01*
X181795000Y-78104538D02*
G75*
G03*
X187345000Y-79649830I2990000J-462D01*
G01*
X187345000Y-76560170D02*
G75*
G03*
X181795000Y-78105462I-2560000J-1544830D01*
G01*
X187285000Y-78105000D02*
G75*
G03*
X187285000Y-78105000I-2500000J0D01*
G01*
%TO.C,R5*%
X172625000Y-108685000D02*
X172625000Y-108355000D01*
X179165000Y-108355000D02*
X179165000Y-108685000D01*
X179165000Y-105945000D02*
X172625000Y-105945000D01*
X179165000Y-106275000D02*
X179165000Y-105945000D01*
X179165000Y-108685000D02*
X172625000Y-108685000D01*
X172625000Y-105945000D02*
X172625000Y-106275000D01*
%TO.C,R6*%
X118650000Y-79605000D02*
X118650000Y-79275000D01*
X118650000Y-82015000D02*
X125190000Y-82015000D01*
X118650000Y-79275000D02*
X125190000Y-79275000D01*
X125190000Y-79275000D02*
X125190000Y-79605000D01*
X118650000Y-81685000D02*
X118650000Y-82015000D01*
X125190000Y-82015000D02*
X125190000Y-81685000D01*
%TO.C,C2*%
X177875000Y-100965000D02*
G75*
G03*
X177875000Y-100965000I-3270000J0D01*
G01*
%TO.C,SW2*%
X105550000Y-87135000D02*
X105550000Y-88335000D01*
X115050000Y-87435000D02*
X115050000Y-91635000D01*
X105850000Y-91635000D02*
X107050000Y-91635000D01*
X115050000Y-91635000D02*
X113850000Y-91635000D01*
X105850000Y-87435000D02*
X105850000Y-91635000D01*
X113850000Y-87435000D02*
X115050000Y-87435000D01*
X106750000Y-87135000D02*
X105550000Y-87135000D01*
X107050000Y-87435000D02*
X105850000Y-87435000D01*
%TO.C,C1*%
X120725000Y-111145000D02*
G75*
G03*
X120725000Y-111145000I-3270000J0D01*
G01*
%TO.C,C8*%
X170910000Y-70505000D02*
G75*
G03*
X170910000Y-70505000I-3270000J0D01*
G01*
%TO.C,LED2*%
X187345000Y-100605000D02*
X187345000Y-97515000D01*
X181795000Y-99059538D02*
G75*
G03*
X187345000Y-100604830I2990000J-462D01*
G01*
X187345000Y-97515170D02*
G75*
G03*
X181795000Y-99060462I-2560000J-1544830D01*
G01*
X187285000Y-99060000D02*
G75*
G03*
X187285000Y-99060000I-2500000J0D01*
G01*
%TO.C,R3*%
X118650000Y-84990000D02*
X125190000Y-84990000D01*
X118650000Y-87730000D02*
X125190000Y-87730000D01*
X125190000Y-87730000D02*
X125190000Y-87400000D01*
X118650000Y-85320000D02*
X118650000Y-84990000D01*
X125190000Y-84990000D02*
X125190000Y-85320000D01*
X118650000Y-87400000D02*
X118650000Y-87730000D01*
%TO.C,LED5*%
X187350000Y-89175000D02*
X187350000Y-86085000D01*
X181800000Y-87629538D02*
G75*
G03*
X187350000Y-89174830I2990000J-462D01*
G01*
X187350000Y-86085170D02*
G75*
G03*
X181800000Y-87630462I-2560000J-1544830D01*
G01*
X187290000Y-87630000D02*
G75*
G03*
X187290000Y-87630000I-2500000J0D01*
G01*
%TO.C,C4*%
X170910000Y-95905000D02*
G75*
G03*
X170910000Y-95905000I-3270000J0D01*
G01*
%TO.C,LED3*%
X187345000Y-111400000D02*
X187345000Y-108310000D01*
X181795000Y-109854538D02*
G75*
G03*
X187345000Y-111399830I2990000J-462D01*
G01*
X187345000Y-108310170D02*
G75*
G03*
X181795000Y-109855462I-2560000J-1544830D01*
G01*
X187285000Y-109855000D02*
G75*
G03*
X187285000Y-109855000I-2500000J0D01*
G01*
%TO.C,SW1*%
X115182500Y-99255000D02*
X113982500Y-99255000D01*
X113982500Y-95055000D02*
X115182500Y-95055000D01*
X105982500Y-95055000D02*
X105982500Y-99255000D01*
X115182500Y-95055000D02*
X115182500Y-99255000D01*
X105982500Y-99255000D02*
X107182500Y-99255000D01*
X107182500Y-95055000D02*
X105982500Y-95055000D01*
X105682500Y-94755000D02*
X105682500Y-95955000D01*
X106882500Y-94755000D02*
X105682500Y-94755000D01*
%TO.C,C9*%
X171545000Y-85725000D02*
G75*
G03*
X171545000Y-85725000I-3270000J0D01*
G01*
%TO.C,R9*%
X178205000Y-75470000D02*
X178535000Y-75470000D01*
X178535000Y-82010000D02*
X178205000Y-82010000D01*
X175795000Y-82010000D02*
X176125000Y-82010000D01*
X176125000Y-75470000D02*
X175795000Y-75470000D01*
X175795000Y-75470000D02*
X175795000Y-82010000D01*
X178535000Y-75470000D02*
X178535000Y-82010000D01*
%TO.C,R2*%
X118650000Y-94515000D02*
X125190000Y-94515000D01*
X118650000Y-94845000D02*
X118650000Y-94515000D01*
X118650000Y-97255000D02*
X125190000Y-97255000D01*
X125190000Y-94515000D02*
X125190000Y-94845000D01*
X118650000Y-96925000D02*
X118650000Y-97255000D01*
X125190000Y-97255000D02*
X125190000Y-96925000D01*
%TO.C,R1*%
X118650000Y-100230000D02*
X118650000Y-100560000D01*
X125190000Y-100230000D02*
X118650000Y-100230000D01*
X125190000Y-102640000D02*
X125190000Y-102970000D01*
X125190000Y-102970000D02*
X118650000Y-102970000D01*
X118650000Y-102970000D02*
X118650000Y-102640000D01*
X125190000Y-100560000D02*
X125190000Y-100230000D01*
%TO.C,OC2*%
X136220000Y-81985000D02*
X136220000Y-71705000D01*
X131720000Y-71705000D02*
X131720000Y-81985000D01*
X132970000Y-71705000D02*
X131720000Y-71705000D01*
X131720000Y-81985000D02*
X136220000Y-81985000D01*
X136220000Y-71705000D02*
X134970000Y-71705000D01*
X132970000Y-71705000D02*
G75*
G03*
X134970000Y-71705000I1000000J0D01*
G01*
%TD*%
M02*
